<svg xmlns="http://www.w3.org/2000/svg"
     version="1.1"
     xmlns:xlink="http://www.w3.org/1999/xlink"
     fill="#000000">
  <polygon points="0,0 0,100 25,100 50,75 75,100 100,100 100,0 75,0 75,50 25,50 25,0"
           fill="inherit"></polygon>
  <polygon points="125,0 125,100 150,100 150,60 175,60 175,45 150,20 200,20 175,45 175,60 200,60 200,100 225,100 225,0"
           fill="inherit"></polygon>
  <polygon points="250,0 250,100 325,100 325,75 275,75 275,0"
           fill="inherit"></polygon>
  <polygon points="350,0 350,100 425,100 425,75 375,75 375,0"
           fill="inherit"></polygon>
  <polygon points="300,0 300,50 325,50 325,0"
           fill="inherit"></polygon>
  <polygon points="400,0 400,50 450,50 450,0"
           fill="inherit"></polygon>
</svg>
