<svg xmlns="http://www.w3.org/2000/svg"
     version="1.1"
     xmlns:xlink="http://www.w3.org/1999/xlink"
     fill="#000000">
  <polygon points="0,0 0,1 0.25,1 0.5,0.75 0.75,1 1,1 1,0 0.75,0 0.75,0.5 0.25,0.5 0.25,0"
           fill="inherit"></polygon>
  <polygon points="0.5555555555555556,0 0.5555555555555556,1 0.6666666666666666,1 0.6666666666666666,0.6 0.7777777777777778,0.6 0.7777777777777778,0.45 0.6666666666666666,0.2 0.8888888888888888,0.2 0.7777777777777778,0.45 0.7777777777777778,0.6 0.8888888888888888,0.6 0.8888888888888888,1 1,1 1,0"
           fill="inherit"></polygon>
  <polygon points="0.7692307692307693,0 0.7692307692307693,1 1,1 1,0.75 0.8461538461538461,0.75 0.8461538461538461,0"
           fill="inherit"></polygon>
  <polygon points="0.8235294117647058,0 0.8235294117647058,1 1,1 1,0.75 0.8823529411764706,0.75 0.8823529411764706,0"
           fill="inherit"></polygon>
  <polygon points="0.9230769230769231,0 0.9230769230769231,1 1,1 1,0"
           fill="inherit"></polygon>
  <polygon points="0.8888888888888888,0 0.8888888888888888,1 1,1 1,0"
           fill="inherit"></polygon>
</svg>
